<svg xmlns="http://www.w3.org/2000/svg" viewBox="0 0 24.421 16">
  <defs>
    <style>
      .en-flag1 {
        fill: #41479b;
      }

      .en-flag2 {
        fill: #f5f5f5;
      }

      .en-flag3 {
        fill: #ff4b55;
      }
    </style>
  </defs>
  <g transform="translate(0 -88.276)">
    <path class="en-flag1" d="M24,104.276H.421A.421.421,0,0,1,0,103.855V88.7a.421.421,0,0,1,.421-.421H24a.421.421,0,0,1,.421.421v15.158A.421.421,0,0,1,24,104.276Z"/>
    <path class="en-flag2" d="M24.421,88.7A.421.421,0,0,0,24,88.276H22.116l-7.8,5.111V88.276H10.105v5.111L2.3,88.276H.421A.421.421,0,0,0,0,88.7v1.089l6.692,4.385H0v4.211H6.692L0,102.766v1.089a.421.421,0,0,0,.421.421H2.3l7.8-5.111v5.111h4.211V99.165l7.8,5.111H24a.421.421,0,0,0,.421-.421v-1.089l-6.692-4.385h6.692V94.171H17.729l6.692-4.385Z"/>
    <g transform="translate(0 88.276)">
      <path class="en-flag3" d="M24.421,95.013H13.474V88.276H10.947v6.737H0v2.526H10.947v6.737h2.526V97.539H24.421Z" transform="translate(0 -88.276)"/>
      <path class="en-flag3" d="M8.773,300.138.25,305.671a.416.416,0,0,0,.409.362h.58l9.081-5.895H8.773Z" transform="translate(-0.238 -290.033)"/>
      <path class="en-flag3" d="M315.507,300.138H313.96l9.068,5.886a.417.417,0,0,0,.378-.412v-.346Z" transform="translate(-298.985 -290.033)"/>
      <path class="en-flag3" d="M0,89.982l7.716,5.009H9.263L.245,89.137a.419.419,0,0,0-.245.38Z" transform="translate(0 -89.096)"/>
      <path class="en-flag3" d="M301.685,94.172l8.544-5.546a.415.415,0,0,0-.406-.349h-.6l-9.081,5.895Z" transform="translate(-285.822 -88.277)"/>
    </g>
  </g>
</svg>
